<?xml version="1.0" encoding="utf-8"?>
<!-- Generator: Adobe Illustrator 16.0.3, SVG Export Plug-In . SVG Version: 6.00 Build 0)  -->
<!DOCTYPE svg PUBLIC "-//W3C//DTD SVG 1.1//EN" "http://www.w3.org/Graphics/SVG/1.1/DTD/svg11.dtd">
<svg version="1.1" id="Layer_1" xmlns="http://www.w3.org/2000/svg" xmlns:xlink="http://www.w3.org/1999/xlink" x="0px" y="0px"
	 width="200px" height="28px" viewBox="0 0 200 28" enable-background="new 0 0 200 28" xml:space="preserve">
<g>
	<path fill="#f05032" d="M42.797,8.639c-0.706-1.7-1.688-3.189-2.951-4.466c-1.264-1.276-2.768-2.287-4.517-3.042
		C33.582,0.377,31.676,0,29.613,0c-1.896,0-3.576,0.279-5.046,0.837c-1.469,0.56-2.745,1.27-3.824,2.132
		c-0.716,0.571-1.346,1.174-1.896,1.8c-0.516-0.898-1.187-1.678-2.019-2.327c-0.437-0.34-0.893-0.631-1.367-0.876
		c-0.473-0.242-1.025-0.442-1.658-0.6c-0.629-0.157-1.372-0.273-2.219-0.345c-0.852-0.074-1.872-0.109-3.06-0.109H0v26.979h6.593
		v-8.718h0.073l6.229,8.717h7.867l-7.32-9.189c0.891-0.154,1.68-0.411,2.371-0.765c0.159,0.619,0.363,1.233,0.616,1.84
		c0.678,1.643,1.64,3.1,2.878,4.374c1.237,1.279,2.729,2.305,4.479,3.082c1.749,0.779,3.68,1.166,5.791,1.166
		c2.089,0,4.008-0.374,5.755-1.127c1.749-0.754,3.252-1.769,4.517-3.045c1.262-1.275,2.246-2.765,2.951-4.466
		c0.704-1.701,1.055-3.488,1.055-5.363C43.853,12.126,43.501,10.341,42.797,8.639z M13.405,11.375
		c-0.099,0.438-0.299,0.854-0.604,1.257c-0.303,0.401-0.751,0.741-1.347,1.021c-0.596,0.279-1.401,0.42-2.421,0.42h-2.44V6.561
		h2.513c1.335,0,2.412,0.298,3.223,0.892c0.814,0.598,1.219,1.515,1.219,2.754C13.549,10.548,13.5,10.937,13.405,11.375z
		 M36.514,16.732c-0.305,0.926-0.753,1.774-1.347,2.555c-0.597,0.777-1.351,1.416-2.26,1.913c-0.91,0.498-1.971,0.746-3.185,0.746
		c-1.166,0-2.203-0.221-3.115-0.672c-0.913-0.449-1.687-1.046-2.33-1.785c-0.646-0.744-1.137-1.594-1.476-2.555
		c-0.342-0.959-0.511-1.963-0.511-3.006c0-0.95,0.159-1.89,0.476-2.825c0.316-0.936,0.783-1.78,1.4-2.535
		c0.619-0.754,1.391-1.359,2.312-1.823c0.924-0.461,1.98-0.692,3.17-0.692c1.238,0,2.317,0.25,3.242,0.748
		c0.923,0.498,1.681,1.142,2.277,1.932c0.593,0.791,1.043,1.653,1.348,2.589c0.302,0.937,0.456,1.841,0.456,2.716
		C36.97,14.911,36.816,15.81,36.514,16.732z"/>
	<path fill="#f05032" d="M80.761,27.49v-8.717h0.073l6.229,8.717h7.868l-7.321-9.189c1.261-0.217,2.325-0.639,3.186-1.256
		c0.86-0.621,1.554-1.335,2.075-2.152c0.523-0.814,0.893-1.671,1.112-2.57c0.217-0.899,0.328-1.739,0.328-2.517
		c0-1.1-0.176-2.183-0.52-3.244h3.611v20.929h6.882V0.512H92.312v3.23c-0.384-0.476-0.819-0.912-1.317-1.3
		c-0.435-0.34-0.891-0.631-1.366-0.876c-0.471-0.242-1.023-0.442-1.657-0.6C87.341,0.81,86.6,0.693,85.75,0.622
		c-0.85-0.074-1.869-0.109-3.057-0.109h-8.525v20.926h-8.998v-1.592h6.303v-6.054h-6.303V6.562h7.772v-6.05H58.581v15.964
		c-0.022-0.054-0.043-0.107-0.067-0.161c-0.278-0.621-0.717-1.228-1.312-1.823c-0.594-0.598-1.437-1.088-2.53-1.478
		c1.094-0.634,1.886-1.433,2.384-2.404c0.499-0.973,0.748-1.982,0.748-3.028c0-0.777-0.116-1.552-0.347-2.332
		c-0.23-0.779-0.649-1.485-1.256-2.117c-0.485-0.534-0.996-0.977-1.529-1.329c-0.535-0.352-1.142-0.619-1.82-0.802
		c-0.682-0.182-1.445-0.31-2.293-0.382c-0.852-0.074-1.848-0.108-2.988-0.108h-8.304v1.942c0.495,0.383,0.971,0.785,1.409,1.228
		c1.326,1.34,2.359,2.906,3.1,4.688c0.736,1.789,1.107,3.666,1.107,5.627c0,1.967-0.371,3.844-1.107,5.631
		c-0.741,1.784-1.774,3.349-3.1,4.686c-0.438,0.445-0.914,0.846-1.409,1.23v1.946h8.561c1.139,0,2.122-0.026,2.948-0.075
		c0.825-0.05,1.572-0.15,2.241-0.309c0.666-0.157,1.281-0.395,1.84-0.714c0.556-0.313,1.152-0.727,1.784-1.236
		c0.824-0.683,1.443-1.558,1.857-2.625c0.029-0.078,0.055-0.154,0.084-0.232v5.191L80.761,27.49L80.761,27.49z M45.856,6.562h2.44
		c0.267,0,0.571,0.012,0.91,0.037c0.343,0.025,0.657,0.099,0.949,0.218c0.291,0.122,0.541,0.323,0.746,0.602
		c0.207,0.281,0.31,0.675,0.31,1.185c0,0.535-0.108,0.949-0.328,1.242c-0.218,0.29-0.479,0.503-0.781,0.636
		c-0.306,0.134-0.619,0.214-0.948,0.238c-0.329,0.025-0.614,0.035-0.856,0.035h-2.44L45.856,6.562L45.856,6.562z M52.104,20.343
		c-0.28,0.344-0.603,0.597-0.966,0.766c-0.365,0.171-0.742,0.27-1.129,0.292c-0.39,0.024-0.691,0.037-0.911,0.037h-3.242v-4.922
		h3.242c0.266,0,0.596,0.012,0.982,0.038c0.388,0.022,0.765,0.108,1.129,0.253c0.365,0.147,0.676,0.378,0.93,0.695
		c0.257,0.316,0.382,0.766,0.382,1.349C52.521,19.503,52.382,20.003,52.104,20.343z M87.572,11.375
		c-0.097,0.438-0.297,0.854-0.602,1.257c-0.303,0.401-0.752,0.741-1.348,1.021c-0.594,0.279-1.401,0.42-2.422,0.42h-2.439V6.561
		h2.511c1.338,0,2.412,0.298,3.226,0.892c0.813,0.598,1.219,1.515,1.219,2.754C87.716,10.548,87.668,10.937,87.572,11.375z"/>
	<g>
		<g>
			<path fill="#f05032" d="M150.309,0.512l-4.042,10.827L142.26,0.512h-7.466l8.049,17.168v8.293L132.735,0.512h-5.426
				l-10.259,25.583V6.562h6.565l2.43-6.05h-20.59v6.05h4.711V27.49h13.717l1.42-3.902h9.362l1.31,3.902h13.751v-9.81l7.976-17.168
				H150.309z M127.198,18.12l2.77-9.225h0.075h0.036l2.767,9.225H127.198z"/>
		</g>
		<g>
			<path fill="#f05032" d="M198.942,8.639c-0.706-1.7-1.689-3.189-2.951-4.466c-1.263-1.276-2.768-2.287-4.517-3.042
				C189.727,0.377,187.818,0,185.757,0c-1.896,0-3.575,0.279-5.047,0.837c-1.468,0.56-2.742,1.27-3.82,2.132
				c-0.255,0.202-0.492,0.41-0.724,0.618c1.006,1.019,1.827,2.118,2.44,3.301c0.475,0.916,0.826,1.775,1.073,2.582
				c0.189-0.312,0.398-0.616,0.632-0.903c0.619-0.753,1.39-1.359,2.312-1.823c0.923-0.461,1.979-0.692,3.169-0.692
				c1.238,0,2.318,0.25,3.244,0.748c0.919,0.498,1.68,1.142,2.275,1.932c0.592,0.79,1.044,1.652,1.346,2.588
				c0.305,0.937,0.456,1.841,0.456,2.716c0,0.876-0.151,1.774-0.456,2.697c-0.302,0.927-0.753,1.775-1.346,2.554
				c-0.596,0.777-1.349,1.417-2.26,1.914c-0.909,0.497-1.972,0.746-3.186,0.746c-1.164,0-2.204-0.222-3.114-0.672
				c-0.91-0.449-1.688-1.047-2.332-1.785c-0.27-0.313-0.504-0.646-0.722-0.993c-0.411,1.344-0.98,2.589-1.729,3.717
				c-0.536,0.81-1.142,1.54-1.798,2.215c1.086,0.963,2.332,1.771,3.758,2.404c1.748,0.78,3.678,1.166,5.788,1.166
				c2.091,0,4.01-0.373,5.758-1.127c1.748-0.753,3.252-1.769,4.517-3.044c1.262-1.276,2.245-2.766,2.95-4.467
				C199.648,17.662,200,15.875,200,14C199.998,12.126,199.646,10.341,198.942,8.639z"/>
		</g>
		<g>
			<path fill="#f05032" d="M178.958,17.389h-7.211c-0.121,0.245-0.321,0.614-0.6,1.112c-0.28,0.5-0.676,1.002-1.187,1.516
				c-0.509,0.51-1.151,0.957-1.928,1.348c-0.78,0.39-1.701,0.582-2.769,0.582c-1.117,0-2.124-0.222-3.023-0.673
				c-0.898-0.449-1.656-1.052-2.276-1.806c-0.621-0.751-1.101-1.61-1.438-2.571c-0.34-0.96-0.512-1.95-0.512-2.97
				c0-0.95,0.159-1.898,0.475-2.844c0.315-0.949,0.783-1.792,1.402-2.535c0.618-0.74,1.371-1.341,2.257-1.804
				c0.887-0.461,1.913-0.692,3.079-0.692c0.923,0,1.748,0.152,2.477,0.455c0.728,0.304,1.361,0.688,1.896,1.151
				c0.529,0.459,0.977,0.964,1.328,1.513c0.35,0.546,0.623,1.076,0.818,1.584h7.211c-0.193-1.043-0.619-2.199-1.273-3.463
				c-0.655-1.261-1.549-2.429-2.678-3.499c-1.13-1.07-2.508-1.969-4.137-2.699C169.247,0.365,167.38,0,165.265,0
				c-2.211,0-4.19,0.405-5.937,1.221c-0.334,0.157-0.649,0.329-0.965,0.502l-6.957,14.978c0.172,0.859,0.426,1.701,0.765,2.531
				c0.69,1.689,1.657,3.183,2.897,4.483c1.234,1.3,2.729,2.337,4.479,3.115c1.748,0.78,3.676,1.166,5.793,1.166
				c1.625,0,3.178-0.253,4.658-0.762c1.481-0.514,2.817-1.229,4.006-2.152c1.19-0.925,2.215-2.035,3.081-3.337
				C177.945,20.448,178.569,18.993,178.958,17.389z"/>
		</g>
	</g>
</g>
</svg>
