<?xml version="1.0" encoding="utf-8"?>
<!-- Generator: Adobe Illustrator 16.0.3, SVG Export Plug-In . SVG Version: 6.00 Build 0)  -->
<!DOCTYPE svg PUBLIC "-//W3C//DTD SVG 1.1//EN" "http://www.w3.org/Graphics/SVG/1.1/DTD/svg11.dtd">
<svg version="1.1" id="Layer_1" xmlns="http://www.w3.org/2000/svg" xmlns:xlink="http://www.w3.org/1999/xlink" x="0px" y="0px"
	 width="250px" height="35px" viewBox="0 0 250 35" enable-background="new 0 0 250 35" xml:space="preserve">
<g>
	<g>
		<path fill="#F05133" d="M53.497,10.801c-0.883-2.127-2.111-3.988-3.689-5.585c-1.58-1.595-3.461-2.859-5.646-3.804
			C41.978,0.471,39.595,0,37.015,0c-2.369,0-4.469,0.35-6.307,1.047c-1.836,0.699-3.43,1.587-4.779,2.666
			c-0.895,0.713-1.682,1.467-2.371,2.25c-0.645-1.123-1.482-2.098-2.523-2.91c-0.547-0.424-1.117-0.789-1.709-1.096
			c-0.59-0.303-1.281-0.553-2.072-0.75c-0.787-0.197-1.715-0.342-2.773-0.432c-1.066-0.093-2.34-0.136-3.826-0.136H-0.001v33.727
			h8.242V23.471h0.09l7.787,10.896h9.834l-9.15-11.487c1.113-0.193,2.1-0.514,2.963-0.956c0.199,0.774,0.453,1.542,0.77,2.3
			c0.848,2.053,2.049,3.876,3.598,5.469c1.545,1.598,3.41,2.881,5.598,3.852c2.186,0.975,4.6,1.457,7.238,1.457
			c2.611,0,5.01-0.467,7.193-1.408c2.186-0.942,4.066-2.211,5.646-3.806c1.578-1.597,2.807-3.458,3.689-5.585
			c0.879-2.125,1.318-4.359,1.318-6.703C54.815,15.158,54.376,12.928,53.497,10.801z M16.757,14.221
			c-0.125,0.547-0.375,1.068-0.756,1.57c-0.379,0.502-0.939,0.928-1.684,1.276s-1.75,0.525-3.027,0.525H8.241v-9.39h3.141
			c1.668,0,3.014,0.372,4.029,1.115c1.016,0.746,1.523,1.893,1.523,3.443C16.935,13.186,16.874,13.673,16.757,14.221z
			 M45.642,20.918c-0.381,1.158-0.941,2.219-1.684,3.193c-0.746,0.971-1.688,1.771-2.824,2.391
			c-1.139,0.623-2.465,0.934-3.982,0.934c-1.457,0-2.754-0.277-3.893-0.84c-1.141-0.562-2.109-1.309-2.912-2.232
			c-0.807-0.932-1.422-1.992-1.846-3.193c-0.428-1.2-0.639-2.453-0.639-3.76c0-1.187,0.199-2.361,0.594-3.531
			s0.979-2.225,1.752-3.17c0.773-0.942,1.738-1.699,2.889-2.279c1.156-0.576,2.475-0.865,3.963-0.865
			c1.549,0,2.896,0.312,4.053,0.936c1.154,0.622,2.1,1.428,2.846,2.414c0.742,0.988,1.303,2.066,1.684,3.236
			c0.379,1.172,0.57,2.303,0.57,3.396S46.021,19.764,45.642,20.918z"/>
		<path fill="#F05133" d="M100.952,34.366V23.471h0.09l7.787,10.896h9.836l-9.152-11.487c1.576-0.271,2.906-0.799,3.982-1.571
			c1.076-0.776,1.941-1.67,2.594-2.69c0.654-1.017,1.115-2.089,1.389-3.213c0.271-1.124,0.41-2.174,0.41-3.146
			c0-1.376-0.219-2.729-0.65-4.056h4.514v26.163h8.604V0.64H115.39v4.038c-0.48-0.595-1.025-1.14-1.646-1.625
			c-0.545-0.424-1.113-0.789-1.707-1.096c-0.59-0.303-1.279-0.553-2.072-0.75c-0.789-0.197-1.715-0.342-2.777-0.432
			c-1.062-0.093-2.336-0.136-3.82-0.136H92.712v26.159H81.464v-1.99h7.879v-7.566h-7.879V8.203h9.715V0.64H73.226v19.958
			c-0.029-0.068-0.053-0.134-0.084-0.201c-0.348-0.776-0.896-1.535-1.641-2.279c-0.742-0.747-1.795-1.36-3.162-1.848
			c1.367-0.791,2.357-1.792,2.98-3.006c0.623-1.217,0.934-2.477,0.934-3.785c0-0.971-0.145-1.941-0.432-2.914
			c-0.289-0.975-0.811-1.857-1.57-2.646c-0.607-0.668-1.246-1.223-1.912-1.662c-0.668-0.44-1.428-0.774-2.275-1.003
			c-0.854-0.228-1.807-0.388-2.867-0.478C62.13,0.683,60.886,0.64,59.46,0.64H49.081v2.429c0.617,0.479,1.213,0.981,1.76,1.534
			c1.658,1.677,2.949,3.634,3.875,5.862c0.92,2.234,1.385,4.582,1.385,7.033c0,2.459-0.465,4.805-1.385,7.039
			c-0.926,2.23-2.217,4.186-3.875,5.858c-0.547,0.557-1.143,1.058-1.76,1.538v2.433h10.701c1.424,0,2.652-0.033,3.686-0.094
			c1.031-0.062,1.965-0.188,2.801-0.386c0.832-0.197,1.6-0.494,2.299-0.893c0.695-0.391,1.441-0.907,2.23-1.545
			c1.029-0.852,1.805-1.946,2.322-3.283c0.035-0.096,0.068-0.193,0.105-0.291v6.491H100.952z M57.321,8.203h3.049
			c0.334,0,0.715,0.016,1.139,0.046c0.428,0.031,0.82,0.122,1.186,0.272c0.363,0.152,0.676,0.404,0.932,0.752
			c0.258,0.352,0.387,0.844,0.387,1.482c0,0.668-0.135,1.186-0.41,1.551c-0.273,0.363-0.598,0.629-0.977,0.796
			c-0.383,0.167-0.773,0.269-1.184,0.297c-0.412,0.031-0.768,0.044-1.072,0.044h-3.049V8.203z M65.13,25.432
			c-0.35,0.429-0.752,0.744-1.207,0.956c-0.455,0.214-0.928,0.336-1.412,0.364c-0.486,0.031-0.863,0.047-1.137,0.047h-4.053v-6.152
			h4.053c0.332,0,0.744,0.014,1.227,0.047c0.486,0.026,0.957,0.135,1.412,0.316c0.455,0.184,0.844,0.473,1.162,0.868
			c0.32,0.394,0.477,0.956,0.477,1.687C65.651,24.382,65.478,25.007,65.13,25.432z M109.466,14.221
			c-0.123,0.547-0.373,1.068-0.752,1.57s-0.941,0.928-1.686,1.276c-0.742,0.349-1.75,0.525-3.027,0.525h-3.049v-9.39h3.139
			c1.672,0,3.014,0.372,4.031,1.115c1.016,0.746,1.523,1.893,1.523,3.443C109.646,13.186,109.585,13.673,109.466,14.221z"/>
		<g>
			<g>
				<path fill="#F05133" d="M187.886,0.64l-5.051,13.536l-5.01-13.536h-9.332l10.062,21.464v10.367L165.921,0.64h-6.783
					l-12.824,31.984V8.203h8.207l3.037-7.563h-25.738v7.563h5.889v26.163h17.146l1.777-4.878h11.703l1.637,4.878h17.188V22.104
					L197.13,0.64H187.886z M158.999,22.652l3.461-11.532h0.094h0.045l3.459,11.532H158.999z"/>
			</g>
			<g>
				<path fill="#F05133" d="M248.679,10.801c-0.881-2.127-2.111-3.988-3.688-5.585c-1.58-1.595-3.461-2.859-5.645-3.804
					C237.159,0.471,234.776,0,232.196,0c-2.369,0-4.467,0.35-6.309,1.047c-1.834,0.699-3.426,1.587-4.775,2.666
					c-0.318,0.252-0.613,0.512-0.904,0.771c1.258,1.274,2.285,2.648,3.051,4.126c0.594,1.145,1.033,2.219,1.342,3.228
					c0.236-0.39,0.498-0.77,0.789-1.129c0.775-0.942,1.738-1.699,2.891-2.279c1.154-0.576,2.475-0.865,3.961-0.865
					c1.549,0,2.898,0.312,4.055,0.936c1.15,0.622,2.102,1.428,2.844,2.414c0.742,0.988,1.307,2.066,1.684,3.236
					c0.381,1.172,0.568,2.303,0.568,3.396s-0.188,2.217-0.568,3.371c-0.377,1.158-0.941,2.219-1.684,3.193
					c-0.742,0.971-1.684,1.771-2.822,2.391c-1.137,0.623-2.465,0.934-3.984,0.934c-1.455,0-2.754-0.277-3.891-0.84
					c-1.139-0.562-2.111-1.309-2.916-2.232c-0.338-0.393-0.629-0.808-0.902-1.242c-0.514,1.68-1.225,3.238-2.162,4.646
					c-0.67,1.012-1.426,1.926-2.246,2.77c1.357,1.203,2.914,2.213,4.697,3.006c2.184,0.975,4.596,1.457,7.236,1.457
					c2.611,0,5.01-0.467,7.197-1.408c2.184-0.942,4.064-2.211,5.645-3.806c1.576-1.597,2.807-3.458,3.688-5.585
					c0.881-2.125,1.32-4.359,1.32-6.703C249.999,15.158,249.56,12.928,248.679,10.801z"/>
			</g>
			<g>
				<path fill="#F05133" d="M223.698,21.738h-9.012c-0.152,0.307-0.402,0.768-0.752,1.391c-0.348,0.625-0.842,1.253-1.482,1.896
					c-0.637,0.636-1.439,1.196-2.41,1.684c-0.973,0.487-2.125,0.728-3.461,0.728c-1.396,0-2.654-0.277-3.779-0.84
					c-1.123-0.562-2.07-1.315-2.846-2.258c-0.775-0.939-1.375-2.014-1.797-3.215c-0.426-1.201-0.641-2.438-0.641-3.713
					c0-1.187,0.201-2.371,0.594-3.555c0.395-1.186,0.98-2.24,1.754-3.17c0.773-0.925,1.713-1.676,2.822-2.256
					c1.107-0.576,2.391-0.865,3.848-0.865c1.154,0,2.184,0.19,3.096,0.568c0.908,0.381,1.701,0.861,2.369,1.439
					c0.662,0.574,1.221,1.205,1.66,1.892c0.439,0.683,0.781,1.345,1.025,1.979h9.012c-0.24-1.305-0.773-2.748-1.592-4.329
					c-0.818-1.577-1.934-3.037-3.346-4.374c-1.414-1.338-3.135-2.461-5.17-3.375C211.56,0.455,209.226,0,206.581,0
					c-2.762,0-5.238,0.506-7.42,1.526c-0.418,0.196-0.812,0.411-1.205,0.628l-8.697,18.725c0.215,1.074,0.531,2.128,0.955,3.164
					c0.863,2.111,2.072,3.979,3.623,5.605c1.543,1.625,3.41,2.924,5.598,3.895C201.62,34.518,204.03,35,206.677,35
					c2.031,0,3.971-0.316,5.822-0.952c1.852-0.642,3.521-1.536,5.008-2.69c1.486-1.156,2.768-2.545,3.85-4.172
					C222.433,25.562,223.214,23.744,223.698,21.738z"/>
			</g>
		</g>
	</g>
</g>
</svg>
