<?xml version="1.0" encoding="utf-8"?>
<!-- Generator: Adobe Illustrator 16.0.3, SVG Export Plug-In . SVG Version: 6.00 Build 0)  -->
<!DOCTYPE svg PUBLIC "-//W3C//DTD SVG 1.1//EN" "http://www.w3.org/Graphics/SVG/1.1/DTD/svg11.dtd">
<svg version="1.1" id="Layer_1" xmlns="http://www.w3.org/2000/svg" xmlns:xlink="http://www.w3.org/1999/xlink" x="0px" y="0px"
	 width="200px" height="28px" viewBox="0 0 200 28" enable-background="new 0 0 200 28" xml:space="preserve">
<g>
	<path fill="#455560" d="M42.799,8.64c-0.707-1.701-1.689-3.19-2.952-4.467c-1.264-1.276-2.769-2.288-4.517-3.043
		C33.583,0.377,31.677,0,29.612,0c-1.896,0-3.575,0.279-5.045,0.837c-1.469,0.559-2.744,1.27-3.823,2.132
		c-0.716,0.571-1.346,1.174-1.897,1.8c-0.516-0.898-1.186-1.677-2.019-2.328c-0.438-0.34-0.894-0.632-1.367-0.877
		c-0.472-0.242-1.025-0.442-1.658-0.6c-0.629-0.157-1.371-0.273-2.219-0.345c-0.853-0.075-1.871-0.109-3.061-0.109H0v26.981h6.594
		v-8.717h0.072l6.229,8.717h7.867l-7.32-9.19c0.891-0.155,1.68-0.412,2.37-0.765c0.159,0.619,0.362,1.233,0.615,1.84
		c0.679,1.642,1.64,3.101,2.879,4.375c1.235,1.279,2.728,2.305,4.478,3.082C25.533,27.614,27.464,28,29.575,28
		c2.089,0,4.008-0.374,5.755-1.126c1.748-0.754,3.253-1.769,4.517-3.044c1.263-1.277,2.245-2.767,2.952-4.468
		c0.703-1.701,1.055-3.488,1.055-5.363C43.854,12.127,43.502,10.343,42.799,8.64z M13.406,11.376c-0.1,0.438-0.3,0.855-0.604,1.257
		c-0.304,0.402-0.752,0.742-1.347,1.021c-0.596,0.279-1.4,0.42-2.422,0.42H6.594V6.562h2.513c1.334,0,2.411,0.298,3.224,0.893
		c0.812,0.597,1.219,1.515,1.219,2.754C13.549,10.549,13.5,10.938,13.406,11.376z M36.514,16.734
		c-0.305,0.926-0.753,1.775-1.347,2.554c-0.597,0.777-1.35,1.417-2.259,1.914c-0.911,0.498-1.973,0.746-3.187,0.746
		c-1.165,0-2.203-0.222-3.114-0.672c-0.912-0.45-1.688-1.046-2.329-1.786c-0.646-0.745-1.138-1.594-1.477-2.554
		c-0.343-0.96-0.511-1.963-0.511-3.007c0-0.95,0.159-1.89,0.475-2.826c0.315-0.936,0.783-1.779,1.401-2.535
		c0.619-0.754,1.391-1.359,2.312-1.823c0.925-0.461,1.979-0.692,3.17-0.692c1.239,0,2.317,0.25,3.242,0.748
		c0.924,0.498,1.68,1.142,2.276,1.932c0.594,0.791,1.042,1.653,1.347,2.589c0.304,0.937,0.457,1.842,0.457,2.717
		C36.971,14.913,36.817,15.811,36.514,16.734z"/>
	<path fill="#455560" d="M80.763,27.493v-8.717h0.071l6.23,8.717h7.868l-7.321-9.19c1.261-0.218,2.324-0.64,3.186-1.257
		c0.861-0.621,1.553-1.336,2.075-2.152c0.523-0.813,0.892-1.671,1.11-2.57c0.218-0.899,0.328-1.739,0.328-2.517
		c0-1.101-0.175-2.183-0.52-3.245h3.61v20.931h6.883V0.512H92.312v3.231c-0.385-0.476-0.82-0.912-1.317-1.3
		c-0.436-0.34-0.891-0.632-1.365-0.877c-0.472-0.242-1.023-0.442-1.658-0.6C87.341,0.808,86.6,0.692,85.75,0.621
		c-0.85-0.075-1.869-0.109-3.057-0.109H74.17v20.928h-8.998v-1.593h6.303v-6.053h-6.303V6.562h7.771v-6.05H58.581v15.966
		c-0.023-0.054-0.042-0.107-0.067-0.161c-0.277-0.621-0.717-1.228-1.312-1.824c-0.594-0.597-1.436-1.088-2.529-1.477
		c1.094-0.633,1.886-1.434,2.385-2.405c0.498-0.973,0.746-1.981,0.746-3.028c0-0.777-0.115-1.553-0.345-2.332
		c-0.231-0.779-0.648-1.485-1.257-2.117c-0.485-0.534-0.996-0.978-1.529-1.33c-0.534-0.353-1.143-0.62-1.82-0.802
		c-0.683-0.182-1.445-0.311-2.294-0.382c-0.853-0.075-1.849-0.109-2.989-0.109h-8.303v1.943c0.494,0.383,0.971,0.785,1.408,1.228
		c1.326,1.341,2.359,2.907,3.1,4.689c0.736,1.788,1.107,3.666,1.107,5.627c0,1.967-0.371,3.844-1.107,5.631
		c-0.74,1.785-1.773,3.349-3.1,4.687c-0.438,0.445-0.914,0.846-1.408,1.23v1.946h8.561c1.14,0,2.122-0.027,2.949-0.075
		c0.824-0.05,1.571-0.15,2.24-0.308c0.666-0.159,1.279-0.396,1.839-0.714c0.557-0.313,1.153-0.726,1.784-1.236
		c0.824-0.682,1.444-1.557,1.858-2.626c0.028-0.077,0.055-0.155,0.084-0.233v5.193H80.763z M45.857,6.562h2.439
		c0.268,0,0.572,0.013,0.911,0.037c0.342,0.025,0.656,0.098,0.948,0.218c0.291,0.123,0.541,0.324,0.745,0.602
		c0.206,0.281,0.31,0.675,0.31,1.186c0,0.535-0.107,0.948-0.328,1.241c-0.219,0.29-0.479,0.503-0.781,0.636
		c-0.307,0.134-0.619,0.214-0.947,0.238c-0.329,0.025-0.613,0.035-0.857,0.035h-2.439V6.562z M52.104,20.345
		c-0.279,0.343-0.602,0.596-0.966,0.765c-0.363,0.17-0.742,0.269-1.129,0.292c-0.39,0.025-0.691,0.038-0.91,0.038h-3.242v-4.923
		H49.1c0.266,0,0.596,0.011,0.981,0.038c0.39,0.021,0.766,0.108,1.13,0.253c0.364,0.147,0.675,0.378,0.93,0.695
		c0.256,0.315,0.381,0.765,0.381,1.349C52.521,19.505,52.383,20.005,52.104,20.345z M87.573,11.376
		c-0.099,0.438-0.298,0.855-0.602,1.257c-0.303,0.402-0.753,0.742-1.349,1.021c-0.594,0.279-1.399,0.42-2.422,0.42h-2.438V6.562
		h2.511c1.338,0,2.411,0.298,3.225,0.893c0.812,0.597,1.219,1.515,1.219,2.754C87.717,10.549,87.669,10.938,87.573,11.376z"/>
	<g>
		<g>
			<path fill="#F05133" d="M150.31,0.512l-4.041,10.829l-4.008-10.829h-7.466l8.051,17.171v8.294L132.737,0.512h-5.427
				l-10.259,25.587V6.562h6.565l2.43-6.05h-20.591v6.05h4.711v20.931h13.718l1.422-3.903h9.362l1.31,3.903h13.75v-9.811
				l7.977-17.171H150.31z M127.2,18.122l2.769-9.226h0.075h0.036l2.767,9.226H127.2z"/>
		</g>
		<g>
			<path fill="#F05133" d="M198.943,8.64c-0.704-1.701-1.688-3.19-2.949-4.467c-1.265-1.276-2.77-2.288-4.516-3.043
				C189.729,0.377,187.822,0,185.758,0c-1.896,0-3.573,0.279-5.047,0.837c-1.467,0.559-2.74,1.27-3.82,2.132
				c-0.255,0.202-0.49,0.41-0.724,0.618c1.007,1.02,1.828,2.119,2.44,3.301c0.476,0.916,0.827,1.775,1.074,2.582
				c0.188-0.312,0.398-0.616,0.631-0.903c0.62-0.754,1.391-1.359,2.312-1.823c0.924-0.461,1.979-0.692,3.169-0.692
				c1.239,0,2.318,0.25,3.243,0.748c0.921,0.498,1.682,1.142,2.275,1.932c0.594,0.791,1.045,1.653,1.347,2.589
				c0.305,0.937,0.455,1.842,0.455,2.717c0,0.875-0.15,1.774-0.455,2.697c-0.302,0.926-0.753,1.775-1.347,2.554
				c-0.594,0.777-1.347,1.417-2.258,1.914c-0.909,0.498-1.972,0.746-3.188,0.746c-1.164,0-2.203-0.222-3.112-0.672
				c-0.911-0.45-1.689-1.046-2.333-1.786c-0.271-0.313-0.503-0.646-0.722-0.993c-0.411,1.344-0.979,2.59-1.729,3.717
				c-0.536,0.81-1.141,1.541-1.797,2.216c1.086,0.962,2.331,1.771,3.758,2.405c1.746,0.779,3.676,1.165,5.789,1.165
				c2.089,0,4.008-0.374,5.758-1.126c1.746-0.754,3.251-1.769,4.516-3.044c1.261-1.277,2.245-2.767,2.949-4.468
				c0.705-1.701,1.057-3.488,1.057-5.363C200,12.127,199.648,10.343,198.943,8.64z"/>
		</g>
		<g>
			<path fill="#F05133" d="M178.959,17.391h-7.209c-0.122,0.245-0.322,0.614-0.602,1.113c-0.278,0.5-0.674,1.002-1.186,1.516
				c-0.51,0.509-1.152,0.957-1.929,1.347c-0.778,0.39-1.7,0.582-2.769,0.582c-1.117,0-2.123-0.222-3.023-0.672
				c-0.898-0.45-1.656-1.052-2.276-1.807c-0.62-0.751-1.101-1.61-1.438-2.571c-0.341-0.961-0.513-1.951-0.513-2.97
				c0-0.95,0.161-1.898,0.475-2.844c0.316-0.949,0.785-1.792,1.403-2.536c0.619-0.74,1.37-1.341,2.258-1.805
				c0.886-0.461,1.913-0.692,3.078-0.692c0.924,0,1.747,0.152,2.477,0.455c0.727,0.304,1.361,0.689,1.896,1.151
				c0.529,0.459,0.977,0.964,1.328,1.513c0.352,0.546,0.625,1.076,0.82,1.584h7.209c-0.191-1.044-0.618-2.199-1.273-3.463
				c-0.654-1.261-1.547-2.43-2.676-3.499c-1.132-1.071-2.508-1.969-4.137-2.7C169.248,0.364,167.381,0,165.266,0
				c-2.209,0-4.19,0.405-5.936,1.221c-0.335,0.157-0.65,0.329-0.965,0.502l-6.957,14.98c0.172,0.859,0.425,1.702,0.764,2.531
				c0.69,1.689,1.658,3.183,2.898,4.484c1.234,1.3,2.729,2.339,4.479,3.116c1.748,0.779,3.676,1.165,5.793,1.165
				c1.625,0,3.177-0.253,4.658-0.762c1.481-0.514,2.817-1.229,4.006-2.152c1.189-0.925,2.215-2.036,3.08-3.338
				C177.947,20.449,178.572,18.995,178.959,17.391z"/>
		</g>
	</g>
</g>
</svg>
